<svg fill="#000000" height="200px" width="200px" version="1.1" id="Layer_1" xmlns="http://www.w3.org/2000/svg" xmlns:xlink="http://www.w3.org/1999/xlink" viewBox="0 0 512 512" xml:space="preserve"><g id="SVGRepo_bgCarrier" stroke-width="0"></g><g id="SVGRepo_tracerCarrier" stroke-linecap="round" stroke-linejoin="round"></g><g id="SVGRepo_iconCarrier"> <g> <g> <path d="M0,45.511V307.2h512V45.511H0z M221.176,96.021l24.136,24.136l-45.511,45.511l-24.136-24.136L221.176,96.021z M290.823,256.69l-24.136-24.136l45.511-45.511l24.136,24.136L290.823,256.69z M199.801,256.69l-24.136-24.136L312.198,96.021 l24.136,24.136L199.801,256.69z"></path> </g> </g> <g> <g> <polygon points="512,398.222 512,341.333 0,341.333 0,398.222 182.044,398.222 182.044,432.356 108.089,432.356 108.089,466.489 403.911,466.489 403.911,432.356 329.956,432.356 329.956,398.222 "></polygon> </g> </g> </g></svg>