<?xml version="1.0" encoding="utf-8"?>
<!-- Generator: Adobe Illustrator 27.2.0, SVG Export Plug-In . SVG Version: 6.00 Build 0)  -->
<svg version="1.1" id="Layer_1" xmlns="http://www.w3.org/2000/svg" xmlns:xlink="http://www.w3.org/1999/xlink" x="0px" y="0px"
	 viewBox="0 0 1920 1080" style="enable-background:new 0 0 1920 1080;" xml:space="preserve">
<style type="text/css">
	.st0{fill:url(#SVGID_1_);}
	.st1{fill:var(--primary-color);}
	.st2{fill:url(#SVGID_00000036950913478293524490000014527998167569479075_);}
	.st3{fill:url(#SVGID_00000144338989883973894190000014129858278168147100_);}
	.st4{fill:url(#SVGID_00000041291673376409873610000009016170380560721056_);}
	.st5{fill:url(#SVGID_00000029749060064983839140000009095260998394316935_);}
	.st6{fill:#047267;}
	.st7{fill:url(#SVGID_00000036235191878078233640000014109284168410147508_);}
	.st8{fill:url(#SVGID_00000062895485323959125680000013168965976636576912_);}
	.st9{fill:url(#SVGID_00000098915795860846670120000014717362317392835460_);}
	.st10{fill:url(#SVGID_00000067939765447356438630000018303558780535431318_);}
</style>
<linearGradient id="SVGID_1_" gradientUnits="userSpaceOnUse" x1="1409.542" y1="564.7684" x2="1409.542" y2="780.4009">
	<stop  offset="1.385225e-07" style="stop-color:var(--primary-color)"/>
	<stop  offset="0.5" style="stop-color:#027C73"/>
	<stop  offset="0.9949" style="stop-color:#047267"/>
	<stop  offset="1" style="stop-color:#047267"/>
</linearGradient>
<polygon class="st0" points="1434.58,564.77 1434.58,780.4 1434.27,780.4 1384.51,707.79 1384.51,564.77 "/>
<rect x="864.72" y="564.77" class="st1" width="50.04" height="215.63"/>
<linearGradient id="SVGID_00000163053988238019498930000015218104928556976799_" gradientUnits="userSpaceOnUse" x1="1055.0892" y1="585.6304" x2="1207.4069" y2="585.6304">
	<stop  offset="1.385225e-07" style="stop-color:var(--primary-color)"/>
	<stop  offset="0.5" style="stop-color:#027C73"/>
	<stop  offset="0.9949" style="stop-color:#047267"/>
	<stop  offset="1" style="stop-color:#047267"/>
</linearGradient>
<rect x="1055.09" y="564.77" style="fill:url(#SVGID_00000163053988238019498930000015218104928556976799_);" width="152.32" height="41.72"/>
<linearGradient id="SVGID_00000127725878046547959260000008304840696689915791_" gradientUnits="userSpaceOnUse" x1="1055.0892" y1="670.9761" x2="1207.4069" y2="670.9761">
	<stop  offset="1.385225e-07" style="stop-color:var(--primary-color)"/>
	<stop  offset="0.5" style="stop-color:#027C73"/>
	<stop  offset="0.9949" style="stop-color:#047267"/>
	<stop  offset="1" style="stop-color:#047267"/>
</linearGradient>
<rect x="1055.09" y="650.13" style="fill:url(#SVGID_00000127725878046547959260000008304840696689915791_);" width="152.32" height="41.7"/>
<linearGradient id="SVGID_00000126291910167447473540000004427384546962588306_" gradientUnits="userSpaceOnUse" x1="1055.0892" y1="759.5389" x2="1207.4069" y2="759.5389">
	<stop  offset="1.385225e-07" style="stop-color:var(--primary-color)"/>
	<stop  offset="0.5" style="stop-color:#027C73"/>
	<stop  offset="0.9949" style="stop-color:#047267"/>
	<stop  offset="1" style="stop-color:#047267"/>
</linearGradient>
<rect x="1055.09" y="738.68" style="fill:url(#SVGID_00000126291910167447473540000004427384546962588306_);" width="152.32" height="41.72"/>
<linearGradient id="SVGID_00000173151784403492143150000005001296370942949298_" gradientUnits="userSpaceOnUse" x1="1236.7394" y1="672.5847" x2="1434.2747" y2="672.5847">
	<stop  offset="1.385225e-07" style="stop-color:var(--primary-color)"/>
	<stop  offset="0.5" style="stop-color:#027C73"/>
	<stop  offset="0.9949" style="stop-color:#047267"/>
	<stop  offset="1" style="stop-color:#047267"/>
</linearGradient>
<polygon style="fill:url(#SVGID_00000173151784403492143150000005001296370942949298_);" points="1434.27,780.4 1384.51,780.4 
	1384.51,780.38 1287.19,638.36 1236.74,564.77 1286.48,564.77 1287.19,565.8 1384.51,707.79 "/>
<line class="st1" x1="1025.13" y1="656.99" x2="1024.6" y2="656.99"/>
<polygon class="st1" points="1469.49,565.38 1469.52,570.38 1498.29,606.95 1523.34,638.79 1565.15,691.93 1569.17,697.06 
	1602.86,739.87 1634.54,780.14 1700.82,779.79 1668.28,739.52 1633.69,696.72 1560.88,606.62 1527.3,565.07 "/>
<polygon class="st6" points="1469.52,570.38 1470.64,781.01 1524.1,780.73 1523.88,740.29 1602.86,739.87 1569.17,697.06 
	1523.66,697.31 1523.34,638.79 1498.29,606.95 "/>
<linearGradient id="SVGID_00000013182512622798187880000012524461895937924775_" gradientUnits="userSpaceOnUse" x1="1261.4093" y1="780.4009" x2="1261.4093" y2="564.7684">
	<stop  offset="1.385225e-07" style="stop-color:var(--primary-color)"/>
	<stop  offset="0.5" style="stop-color:#027C73"/>
	<stop  offset="0.9949" style="stop-color:#047267"/>
	<stop  offset="1" style="stop-color:#047267"/>
</linearGradient>
<polygon style="fill:url(#SVGID_00000013182512622798187880000012524461895937924775_);" points="1287.19,638.36 1287.19,780.4 
	1235.63,780.4 1235.63,564.77 1236.74,564.77 "/>
<path class="st6" d="M1038.22,780.4h-58.19l-42.63-76.54l-6.71-12.04h-15.94v-34.84h47.18c9.83-6.48,15.94-15.71,15.94-25.91
	c0-9.53-5.33-18.2-14.03-24.58h-49.09v-41.72h56.28c35.62,11.64,60.3,36.97,60.3,66.31c0,9.12-2.39,17.87-6.74,25.91
	c-7.52,13.87-20.86,25.74-37.95,34.06c-0.09,0.04-0.88,0.24-0.86,0.44c0.01,0.17,0.61,0.28,1.31,0.34L1038.22,780.4z"/>
<linearGradient id="SVGID_00000097458740636023968330000005141202951015778197_" gradientUnits="userSpaceOnUse" x1="253.5939" y1="541.1306" x2="848.2189" y2="541.1306">
	<stop  offset="1.385225e-07" style="stop-color:var(--primary-color)"/>
	<stop  offset="0.5267" style="stop-color:#037A71"/>
	<stop  offset="1" style="stop-color:#047267"/>
</linearGradient>
<path style="fill:url(#SVGID_00000097458740636023968330000005141202951015778197_);" d="M811.98,273.74
	c-78.51-76.65-259.04-19.07-403.22,128.63C274.11,540.29,218.76,708,276,791.99c0.49,0.75,1.02,1.5,1.56,2.23
	c3.65,5.1,7.74,9.88,12.27,14.3c77.04,75.23,252.4,21.14,395.19-120.57c2.69-2.64,5.36-5.34,8.01-8.06
	c10.29-10.53,20.12-21.25,29.46-32.09C844.16,506.81,884.87,344.92,811.98,273.74z M676.03,596.11
	c-10.09,11.71-20.73,23.34-31.92,34.79c-0.96,0.99-1.94,1.98-2.92,2.96C512.58,764.2,361.38,824.91,294.61,774.76
	c-1.25-0.93-2.49-1.92-3.68-2.93c-1.25-1.07-2.46-2.18-3.63-3.33c-62.91-61.41-5.14-222.58,129.01-360
	c134.17-137.4,293.92-199.01,356.83-137.6C830.79,327.2,787.05,467.32,676.03,596.11z"/>
<linearGradient id="SVGID_00000013891694441922437550000007200809603761144756_" gradientUnits="userSpaceOnUse" x1="720.582" y1="737.7092" x2="846.2916" y2="737.7092">
	<stop  offset="1.385225e-07" style="stop-color:var(--primary-color)"/>
	<stop  offset="0.5267" style="stop-color:#037A71"/>
	<stop  offset="1" style="stop-color:#047267"/>
</linearGradient>
<path style="fill:url(#SVGID_00000013891694441922437550000007200809603761144756_);" d="M846.29,785.57h-82.22l-43.49-53.7
	c4.11-3.98,8.17-8.06,12.21-12.2c9.57-9.8,18.73-19.75,27.48-29.81L846.29,785.57z"/>
<linearGradient id="SVGID_00000096025047361369685920000003699921558380824498_" gradientUnits="userSpaceOnUse" x1="290.9252" y1="607.5955" x2="676.0226" y2="607.5955">
	<stop  offset="1.385225e-07" style="stop-color:var(--primary-color)"/>
	<stop  offset="0.5267" style="stop-color:#037A71"/>
	<stop  offset="1" style="stop-color:#047267"/>
</linearGradient>
<path style="fill:url(#SVGID_00000096025047361369685920000003699921558380824498_);" d="M676.02,596.11
	c-10.09,11.71-20.73,23.34-31.92,34.79c-0.96,0.99-1.94,1.98-2.92,2.96L534.01,501.54L294.6,774.76c-1.25-0.93-2.49-1.92-3.68-2.93
	l220.57-298.09l24.64-33.31l26.03,28.97L676.02,596.11z"/>
</svg>
