<svg fill="#ffffff" height="200px" width="200px" version="1.1" id="Capa_1" xmlns="http://www.w3.org/2000/svg" xmlns:xlink="http://www.w3.org/1999/xlink" viewBox="0 0 325.592 325.592" xml:space="preserve" stroke="#ffffff"><g id="SVGRepo_bgCarrier" stroke-width="0"></g><g id="SVGRepo_tracerCarrier" stroke-linecap="round" stroke-linejoin="round"></g><g id="SVGRepo_iconCarrier"> <g> <path d="M141.652,192.834l-3.28,19.116c-0.322,1.876,0.449,3.771,1.988,4.891c1.539,1.117,3.579,1.268,5.266,0.381l17.17-9.026 l17.17,9.026c0.731,0.385,1.53,0.574,2.325,0.574c1.037,0,2.069-0.322,2.94-0.955c1.539-1.119,2.311-3.015,1.988-4.891 l-3.28-19.116l13.891-13.54c1.362-1.328,1.854-3.315,1.265-5.125c-0.588-1.811-2.152-3.13-4.036-3.403l-19.194-2.789l-8.585-17.394 c-0.842-1.707-2.58-2.787-4.483-2.787s-3.642,1.08-4.483,2.787l-8.585,17.394l-19.194,2.789c-1.884,0.273-3.448,1.593-4.036,3.403 c-0.589,1.81-0.098,3.797,1.265,5.125L141.652,192.834z"></path> <path d="M62.566,192.834l-3.279,19.116c-0.322,1.876,0.449,3.773,1.988,4.891c0.872,0.633,1.903,0.955,2.94,0.955 c0.795,0,1.594-0.189,2.326-0.574l17.168-9.026l17.17,9.026c1.685,0.887,3.727,0.736,5.266-0.381 c1.539-1.118,2.311-3.015,1.988-4.891l-3.279-19.116l13.891-13.54c1.362-1.328,1.854-3.315,1.265-5.125 c-0.588-1.811-2.152-3.13-4.036-3.403l-19.195-2.789l-8.585-17.394c-0.842-1.707-2.58-2.787-4.483-2.787 c-1.903,0-3.642,1.081-4.483,2.787l-8.584,17.394l-19.194,2.789c-1.884,0.273-3.448,1.593-4.036,3.403 c-0.589,1.81-0.098,3.797,1.265,5.125L62.566,192.834z"></path> <path d="M220.737,192.834l-3.279,19.116c-0.322,1.876,0.449,3.773,1.988,4.891c1.538,1.117,3.579,1.268,5.266,0.381l17.17-9.026 l17.168,9.026c0.732,0.385,1.531,0.574,2.326,0.574c1.037,0,2.069-0.322,2.94-0.955c1.539-1.118,2.311-3.015,1.988-4.891 l-3.279-19.116l13.89-13.54c1.362-1.328,1.854-3.315,1.265-5.125c-0.588-1.811-2.152-3.13-4.036-3.403l-19.194-2.789l-8.584-17.394 c-0.842-1.706-2.58-2.787-4.483-2.787c-1.903,0-3.642,1.08-4.483,2.787l-8.585,17.394l-19.195,2.789 c-1.884,0.273-3.448,1.593-4.036,3.403c-0.589,1.81-0.098,3.797,1.265,5.125L220.737,192.834z"></path> <path d="M308.092,8.463H17.5c-9.649,0-17.5,7.851-17.5,17.5v273.666c0,9.649,7.851,17.5,17.5,17.5h290.592 c9.649,0,17.5-7.851,17.5-17.5V25.963C325.592,16.313,317.741,8.463,308.092,8.463z M273.466,35.296c7.994,0,14.5,6.505,14.5,14.5 s-6.506,14.5-14.5,14.5c-7.996,0-14.5-6.505-14.5-14.5S265.47,35.296,273.466,35.296z M224.294,35.296 c7.995,0,14.5,6.505,14.5,14.5s-6.505,14.5-14.5,14.5c-7.995,0-14.5-6.505-14.5-14.5S216.299,35.296,224.294,35.296z M44.399,42.296h58.5c4.143,0,7.5,3.357,7.5,7.5s-3.357,7.5-7.5,7.5h-58.5c-4.143,0-7.5-3.357-7.5-7.5S40.257,42.296,44.399,42.296 z M297.796,286.806c0,1.258-1.024,2.283-2.283,2.283H30.079c-1.259,0-2.283-1.025-2.283-2.283V98.336h270V286.806z"></path> </g> </g></svg>